<?xml version="1.0" encoding="utf-8"?>
<!-- Generator: Adobe Illustrator 16.0.0, SVG Export Plug-In . SVG Version: 6.00 Build 0)  -->
<!DOCTYPE svg PUBLIC "-//W3C//DTD SVG 1.0//EN" "http://www.w3.org/TR/2001/REC-SVG-20010904/DTD/svg10.dtd">
<svg version="1.0" id="Layer_1" xmlns="http://www.w3.org/2000/svg" xmlns:xlink="http://www.w3.org/1999/xlink" x="0px" y="0px" viewBox="0 0 270 270" enable-background="new 0 0 270 270" xml:space="preserve">
<g>
	<g>
		<g>
			<path fill-rule="evenodd" clip-rule="evenodd" d="M0.3,220.2c22.9-0.3,45.8-0.5,68.7-0.8c4,0,8,0,12,0c0.1-1.1,0.2-2.3,0.3-3.4
				c-6.1-0.6-12.2-1.2-18.3-1.9c-11.7-1.4-14.1-4.5-10.6-15.3c6.9-21.2,14.3-42.3,21.1-63.5c2.1-6.4,5.7-10.4,12.9-10.5
				c18-0.1,36-0.7,54,0.2c4.3,0.2,10.3,5.2,12,9.3c8.2,20.4,15.4,41.1,22.5,61.9c4.2,12.2,1.9,14.9-11.3,16.1
				c-4.9,0.5-9.9,1.3-14.8,2.1c-0.6,0.1-1,1-3.4,3.5c29.3,0,56.6,0,83.9,0c0.2-0.6,0.4-1.3,0.7-1.9c-2.9-1.3-5.7-3.4-8.7-3.7
				c-13.2-1.3-18.6-9.8-22.6-20.6c-20.4-54.8-41-109.4-61.7-164.1c-2.2-5.9-4.3-12-7.5-17.4c-1.8-3.1-5.8-6.9-8.7-6.8
				c-2.8,0.1-6.4,4.5-7.7,7.8C99.9,44.9,87.3,78.7,74.4,112.4c-9.7,25.4-19.3,50.8-29.8,75.9c-10,23.8-16.9,27.2-44.3,25.2
				C0.3,215.8,0.3,218,0.3,220.2z M78.6,117.9c10.9-28.2,21.2-54.6,31.4-81c1.5,0.1,3,0.3,4.6,0.4c10.4,26.3,20.8,52.6,31.9,80.6
				C123,117.9,102.3,117.9,78.6,117.9z"/>
		</g>
	</g>
</g>
<path id="text2396" fill="#000" d="M105.3,235h4.3c0.3,5.3,2,9,4.9,11.1c3,2.1,7.7,3.1,14.2,3.1h32.1l-0.2-7.5
	c-12.4-2.4-23.8-9-34.1-19.8c-10.3-10.8-15.4-24.5-15.4-41c0-18.3,7.1-33.9,21.4-46.8c14.3-12.9,33-19.4,56-19.4
	c22.3,0,40.6,6.1,54.7,18.4c14.2,12.2,21.3,27.8,21.3,46.8c0,15.4-4.4,28.6-13.3,39.4c-8.8,10.7-20.7,18.2-35.7,22.4l-1.2,7.5h32.6
	c7.4,0,12.3-1.3,14.7-4c2.4-2.7,3.7-6.1,3.9-10.2h4.3v35h-65.8l3.1-33.8c20.2-6,30.3-23.8,30.3-53.4c0-19.3-5-34.1-14.9-44.4
	c-9.9-10.3-21.5-15.4-34.8-15.4c-14.2,0-25.9,5.5-35.2,16.5c-9.2,10.9-13.9,24.8-13.9,41.9c0,12.3,2.1,23.5,6.2,33.7
	c4.2,10.1,12.1,17.2,23.8,21.3l2.2,33.8h-65.8V235"/>
</svg>
