<?xml version="1.0" encoding="utf-8"?>
<!DOCTYPE svg PUBLIC "-//W3C//DTD SVG 1.0//EN" "http://www.w3.org/TR/2001/REC-SVG-20010904/DTD/svg10.dtd">
<svg version="1.0" id="Layer_1" xmlns="http://www.w3.org/2000/svg" xmlns:xlink="http://www.w3.org/1999/xlink" x="0px" y="0px" viewBox="0 0 512 512" enable-background="new 0 0 512 512" xml:space="preserve">
<g>
	<path clip-path="url(#SVGID_2_)" d="M407.7,37.2H105.4c-9.4,0-16.9,7.6-16.9,16.9v403.6c0,9.4,7.6,16.9,16.9,16.9h302.3
		c9.4,0,16.9-7.6,16.9-16.9V54.1C424.6,44.8,417,37.2,407.7,37.2 M256.5,467.6c-6,0-10.8-4.8-10.8-10.8c0-6,4.8-10.8,10.8-10.8
		c6,0,10.8,4.8,10.8,10.8C267.3,462.7,262.5,467.6,256.5,467.6 M394,436.6H119.1V75.3H394V436.6z"/>
</g>
</svg>
